# Blender 5.2.0 LTS
# www.blender.org
mtllib Assem1 - Part1-58.mtl
o Assem1_-_Part1-58
v -0.019865 0.003412 -0.039500
v -0.020335 0.003241 -0.040000
v -0.038659 -0.003429 -0.040000
v -0.019865 0.003412 -0.001000
v -0.020805 0.003070 -0.000000
v -0.038659 -0.003429 -0.000000
v -0.013024 -0.015382 -0.001000
v -0.013024 -0.015382 -0.039500
v -0.031818 -0.022223 -0.040000
v -0.013494 -0.015553 -0.040000
v -0.013964 -0.015724 -0.000000
v -0.031818 -0.022223 -0.000000
v -0.013964 -0.015724 -0.000000
v -0.020805 0.003070 -0.000000
vn -0.3420 0.9397 -0.0000
vn 0.9397 0.3420 -0.0000
vn 0.3420 -0.9397 -0.0000
vn -0.9397 -0.3420 -0.0000
vn -0.0000 -0.0000 -1.0000
vn -0.0000 -0.0000 1.0000
vn 0.6645 0.2418 -0.7071
vn 0.6645 0.2418 0.7071
s 0
f 1//1 2//1 3//1
f 4//1 1//1 5//1
f 5//1 1//1 3//1
f 5//1 3//1 6//1
f 7//2 8//2 4//2
f 4//2 8//2 1//2
f 9//3 10//3 8//3
f 8//3 7//3 9//3
f 9//3 7//3 11//3
f 9//3 11//3 12//3
f 3//4 9//4 6//4
f 6//4 9//4 12//4
f 10//5 9//5 2//5
f 2//5 9//5 3//5
f 5//6 6//6 11//6
f 11//6 6//6 12//6
f 8//7 10//7 1//7
f 1//7 10//7 2//7
f 13//8 7//8 14//8
f 14//8 7//8 4//8
