# Blender 5.2.0 LTS
# www.blender.org
mtllib Assem1 - Part1-73.mtl
o Assem1_-_Part1-73
v -0.001846 0.020071 -0.039500
v -0.002133 0.020481 -0.040000
v -0.013318 0.036454 -0.040000
v -0.001846 0.020071 -0.001000
v -0.002420 0.020890 -0.000000
v -0.013318 0.036454 -0.000000
v -0.018229 0.008599 -0.001000
v -0.018229 0.008599 -0.039500
v -0.029701 0.024982 -0.040000
v -0.018516 0.009009 -0.040000
v -0.018803 0.009419 -0.000000
v -0.029701 0.024982 -0.000000
v -0.018803 0.009419 -0.000000
v -0.002420 0.020890 -0.000000
vn 0.8192 0.5736 -0.0000
vn 0.5736 -0.8192 -0.0000
vn -0.8192 -0.5736 -0.0000
vn -0.5736 0.8192 -0.0000
vn -0.0000 -0.0000 -1.0000
vn -0.0000 -0.0000 1.0000
vn 0.4056 -0.5792 -0.7071
vn 0.4056 -0.5792 0.7071
s 0
f 1//1 2//1 3//1
f 4//1 1//1 5//1
f 5//1 1//1 3//1
f 5//1 3//1 6//1
f 7//2 8//2 4//2
f 4//2 8//2 1//2
f 9//3 10//3 8//3
f 8//3 7//3 9//3
f 9//3 7//3 11//3
f 9//3 11//3 12//3
f 3//4 9//4 6//4
f 6//4 9//4 12//4
f 10//5 9//5 2//5
f 2//5 9//5 3//5
f 5//6 6//6 11//6
f 11//6 6//6 12//6
f 8//7 10//7 1//7
f 1//7 10//7 2//7
f 13//8 7//8 14//8
f 14//8 7//8 4//8
