# Blender 5.2.0 LTS
# www.blender.org
mtllib Assem1 - Part1-56.mtl
o Assem1_-_Part1-56
v -0.020155 -0.000090 -0.039500
v -0.020588 -0.000340 -0.040000
v -0.037476 -0.010090 -0.040000
v -0.020155 -0.000090 -0.001000
v -0.021021 -0.000590 -0.000000
v -0.037476 -0.010090 -0.000000
v -0.010155 -0.017410 -0.001000
v -0.010155 -0.017410 -0.039500
v -0.027476 -0.027410 -0.040000
v -0.010588 -0.017660 -0.040000
v -0.011021 -0.017910 -0.000000
v -0.027476 -0.027410 -0.000000
v -0.011021 -0.017910 -0.000000
v -0.021021 -0.000590 -0.000000
vn -0.5000 0.8660 -0.0000
vn 0.8660 0.5000 -0.0000
vn 0.5000 -0.8660 -0.0000
vn -0.8660 -0.5000 -0.0000
vn -0.0000 -0.0000 -1.0000
vn -0.0000 -0.0000 1.0000
vn 0.6124 0.3536 -0.7071
vn 0.6124 0.3535 -0.7071
vn 0.6124 0.3536 0.7071
s 0
f 1//1 2//1 3//1
f 4//1 1//1 5//1
f 5//1 1//1 3//1
f 5//1 3//1 6//1
f 7//2 8//2 4//2
f 4//2 8//2 1//2
f 9//3 10//3 8//3
f 8//3 7//3 9//3
f 9//3 7//3 11//3
f 9//3 11//3 12//3
f 3//4 9//4 6//4
f 6//4 9//4 12//4
f 10//5 9//5 2//5
f 2//5 9//5 3//5
f 5//6 6//6 11//6
f 11//6 6//6 12//6
f 8//7 10//7 1//7
f 1//8 10//8 2//8
f 13//9 7//9 14//9
f 14//9 7//9 4//9
