# Blender 5.2.0 LTS
# www.blender.org
mtllib Assem1 - Part1-72.mtl
o Assem1_-_Part1-72
v -0.003588 0.019834 -0.039500
v -0.003910 0.020217 -0.040000
v -0.016444 0.035155 -0.040000
v -0.003588 0.019834 -0.001000
v -0.004231 0.020600 -0.000000
v -0.016444 0.035155 -0.000000
v -0.018909 0.006978 -0.001000
v -0.018909 0.006978 -0.039500
v -0.031765 0.022299 -0.040000
v -0.019231 0.007361 -0.040000
v -0.019552 0.007744 -0.000000
v -0.031765 0.022299 -0.000000
v -0.019552 0.007744 -0.000000
v -0.004231 0.020600 -0.000000
vn 0.7661 0.6428 -0.0000
vn 0.7660 0.6428 -0.0000
vn 0.6428 -0.7660 -0.0000
vn -0.7660 -0.6428 -0.0000
vn -0.6428 0.7660 -0.0000
vn -0.0000 -0.0000 -1.0000
vn -0.0000 -0.0000 1.0000
vn 0.4545 -0.5417 -0.7071
vn 0.4545 -0.5417 0.7071
s 0
f 1//1 2//1 3//1
f 4//2 1//2 5//2
f 5//2 1//2 3//2
f 5//2 3//2 6//2
f 7//3 8//3 4//3
f 4//3 8//3 1//3
f 9//4 10//4 8//4
f 8//4 7//4 9//4
f 9//4 7//4 11//4
f 9//4 11//4 12//4
f 3//5 9//5 6//5
f 6//5 9//5 12//5
f 10//6 9//6 2//6
f 2//6 9//6 3//6
f 5//7 6//7 11//7
f 11//7 6//7 12//7
f 8//8 10//8 1//8
f 1//8 10//8 2//8
f 13//9 7//9 14//9
f 14//9 7//9 4//9
