# Blender 5.2.0 LTS
# www.blender.org
mtllib pa1.mtl
o 装配体34.9_-_柄部-1
v 0.001645 0.022462 -0.050000
v 0.001645 0.022462 -0.090000
v 0.001645 0.012462 -0.050000
v 0.001645 0.012462 -0.090000
v 0.033645 0.022462 -0.050000
v 0.033645 0.012462 -0.050000
v 0.033645 0.022462 -0.090000
v 0.033645 0.012462 -0.090000
vn -1.0000 -0.0000 -0.0000
vn -0.0000 -0.0000 1.0000
vn 1.0000 -0.0000 -0.0000
vn -0.0000 -0.0000 -1.0000
vn -0.0000 1.0000 -0.0000
vn -0.0000 -1.0000 -0.0000
s 0
f 1//1 2//1 3//1
f 3//1 2//1 4//1
f 5//2 1//2 6//2
f 6//2 1//2 3//2
f 7//3 5//3 8//3
f 8//3 5//3 6//3
f 2//4 7//4 4//4
f 4//4 7//4 8//4
f 5//5 7//5 1//5
f 1//5 7//5 2//5
f 8//6 6//6 4//6
f 4//6 6//6 3//6
