# Blender 5.2.0 LTS
# www.blender.org
mtllib pa2.mtl
o 装配体34.9_-_轴34.9-1
v 0.018699 0.035041 -0.050000
v 0.017624 0.035074 -0.050000
v 0.017624 0.035074 0.000000
v 0.016550 0.035041 0.000000
v 0.016550 0.035041 -0.050000
v 0.014418 0.034777 -0.050000
v 0.014418 0.034777 0.000000
v 0.012334 0.034253 -0.050000
v 0.012334 0.034253 0.000000
v 0.010331 0.033477 -0.050000
v 0.010331 0.033477 0.000000
v 0.008438 0.032461 -0.050000
v 0.008438 0.032461 0.000000
v 0.006685 0.031219 -0.050000
v 0.006685 0.031219 0.000000
v 0.005097 0.029772 -0.050000
v 0.005097 0.029772 0.000000
v 0.003699 0.028140 -0.050000
v 0.003699 0.028140 0.000000
v 0.002512 0.026349 -0.050000
v 0.002512 0.026349 0.000000
v 0.001555 0.024426 -0.050000
v 0.001555 0.024426 0.000000
v 0.000841 0.022400 -0.050000
v 0.000841 0.022400 0.000000
v 0.000381 0.020301 -0.050000
v 0.000381 0.020301 0.000000
v 0.000183 0.018162 -0.050000
v 0.000183 0.018162 0.000000
v 0.000249 0.016014 -0.050000
v 0.000249 0.016014 0.000000
v 0.000578 0.013891 -0.050000
v 0.000578 0.013891 0.000000
v 0.001166 0.011825 -0.050000
v 0.001166 0.011825 0.000000
v 0.002004 0.009846 -0.050000
v 0.002004 0.009846 0.000000
v 0.003078 0.007986 -0.050000
v 0.003078 0.007986 0.000000
v 0.004373 0.006271 -0.050000
v 0.004373 0.006271 0.000000
v 0.005869 0.004729 -0.050000
v 0.005869 0.004729 0.000000
v 0.007542 0.003382 -0.050000
v 0.007542 0.003382 0.000000
v 0.009369 0.002251 -0.050000
v 0.009369 0.002251 0.000000
v 0.011321 0.001353 -0.050000
v 0.011321 0.001353 0.000000
v 0.013368 0.000702 -0.050000
v 0.013368 0.000702 0.000000
v 0.015480 0.000307 -0.050000
v 0.015480 0.000307 0.000000
v 0.017624 0.000175 -0.050000
v 0.017624 0.000175 0.000000
v 0.019769 0.000307 -0.050000
v 0.019769 0.000307 0.000000
v 0.021881 0.000702 -0.050000
v 0.021881 0.000702 0.000000
v 0.023928 0.001353 -0.050000
v 0.023928 0.001353 0.000000
v 0.025880 0.002251 -0.050000
v 0.025880 0.002251 0.000000
v 0.027707 0.003382 -0.050000
v 0.027707 0.003382 0.000000
v 0.029380 0.004729 -0.050000
v 0.029380 0.004729 0.000000
v 0.030876 0.006271 -0.050000
v 0.030876 0.006271 0.000000
v 0.032171 0.007986 -0.050000
v 0.032171 0.007986 0.000000
v 0.033245 0.009846 -0.050000
v 0.033245 0.009846 0.000000
v 0.034083 0.011825 -0.050000
v 0.034083 0.011825 0.000000
v 0.034671 0.013891 -0.050000
v 0.034671 0.013891 0.000000
v 0.035000 0.016014 -0.050000
v 0.035000 0.016014 0.000000
v 0.035066 0.018162 -0.050000
v 0.035066 0.018162 0.000000
v 0.034868 0.020301 -0.050000
v 0.034868 0.020301 0.000000
v 0.034408 0.022400 -0.050000
v 0.034408 0.022400 0.000000
v 0.033694 0.024426 -0.050000
v 0.033694 0.024426 0.000000
v 0.032737 0.026349 -0.050000
v 0.032737 0.026349 0.000000
v 0.031550 0.028140 -0.050000
v 0.031550 0.028140 0.000000
v 0.030152 0.029772 -0.050000
v 0.030152 0.029772 0.000000
v 0.028564 0.031219 -0.050000
v 0.028564 0.031219 0.000000
v 0.026811 0.032461 -0.050000
v 0.026811 0.032461 0.000000
v 0.024918 0.033477 -0.050000
v 0.024918 0.033477 0.000000
v 0.022915 0.034253 -0.050000
v 0.022915 0.034253 0.000000
v 0.020831 0.034777 -0.050000
v 0.020831 0.034777 0.000000
v 0.018699 0.035041 0.000000
v 0.017624 0.017624 -0.050000
v 0.017624 0.017624 0.000000
vn 0.0308 0.9995 -0.0000
vn -0.0308 0.9995 -0.0000
vn -0.1229 0.9924 -0.0000
vn -0.2439 0.9698 -0.0000
vn -0.3612 0.9325 -0.0000
vn -0.4731 0.8810 -0.0000
vn -0.5778 0.8162 -0.0000
vn -0.6737 0.7390 -0.0000
vn -0.7594 0.6506 -0.0000
vn -0.8336 0.5524 -0.0000
vn -0.8952 0.4457 -0.0000
vn -0.9432 0.3324 -0.0000
vn -0.9768 0.2139 -0.0000
vn -0.9957 0.0923 -0.0000
vn -0.9995 -0.0308 -0.0000
vn -0.9882 -0.1534 -0.0000
vn -0.9618 -0.2737 -0.0000
vn -0.9209 -0.3898 -0.0000
vn -0.8660 -0.5000 -0.0000
vn -0.7980 -0.6026 -0.0000
vn -0.7179 -0.6961 -0.0000
vn -0.6269 -0.7791 -0.0000
vn -0.5264 -0.8502 -0.0000
vn -0.4180 -0.9085 -0.0000
vn -0.3032 -0.9529 -0.0000
vn -0.1837 -0.9830 -0.0000
vn -0.0616 -0.9981 -0.0000
vn 0.0616 -0.9981 -0.0000
vn 0.1837 -0.9830 -0.0000
vn 0.3032 -0.9529 -0.0000
vn 0.4180 -0.9085 -0.0000
vn 0.5264 -0.8502 -0.0000
vn 0.6269 -0.7791 -0.0000
vn 0.7179 -0.6961 -0.0000
vn 0.7980 -0.6026 -0.0000
vn 0.8660 -0.5000 -0.0000
vn 0.9209 -0.3898 -0.0000
vn 0.9618 -0.2737 -0.0000
vn 0.9882 -0.1534 -0.0000
vn 0.9995 -0.0308 -0.0000
vn 0.9957 0.0923 -0.0000
vn 0.9768 0.2139 -0.0000
vn 0.9432 0.3324 -0.0000
vn 0.8952 0.4457 -0.0000
vn 0.8336 0.5524 -0.0000
vn 0.7594 0.6506 -0.0000
vn 0.6737 0.7390 -0.0000
vn 0.5778 0.8162 -0.0000
vn 0.4731 0.8810 -0.0000
vn 0.3612 0.9325 -0.0000
vn 0.2439 0.9698 -0.0000
vn 0.1229 0.9924 -0.0000
vn -0.0000 -0.0000 -1.0000
vn -0.0000 -0.0000 1.0000
s 0
f 1//1 2//1 3//1
f 3//2 2//2 4//2
f 2//2 5//2 4//2
f 4//3 5//3 6//3
f 4//3 6//3 7//3
f 7//4 6//4 8//4
f 7//4 8//4 9//4
f 9//5 8//5 10//5
f 9//5 10//5 11//5
f 11//6 10//6 12//6
f 11//6 12//6 13//6
f 13//7 12//7 14//7
f 13//7 14//7 15//7
f 15//8 14//8 16//8
f 15//8 16//8 17//8
f 17//9 16//9 18//9
f 17//9 18//9 19//9
f 19//10 18//10 20//10
f 19//10 20//10 21//10
f 21//11 20//11 22//11
f 21//11 22//11 23//11
f 23//12 22//12 24//12
f 23//12 24//12 25//12
f 25//13 24//13 26//13
f 25//13 26//13 27//13
f 27//14 26//14 28//14
f 27//14 28//14 29//14
f 29//15 28//15 30//15
f 29//15 30//15 31//15
f 31//16 30//16 32//16
f 31//16 32//16 33//16
f 33//17 32//17 34//17
f 33//17 34//17 35//17
f 35//18 34//18 36//18
f 35//18 36//18 37//18
f 37//19 36//19 38//19
f 37//19 38//19 39//19
f 39//20 38//20 40//20
f 39//20 40//20 41//20
f 41//21 40//21 42//21
f 41//21 42//21 43//21
f 43//22 42//22 44//22
f 43//22 44//22 45//22
f 45//23 44//23 46//23
f 45//23 46//23 47//23
f 47//24 46//24 48//24
f 47//24 48//24 49//24
f 49//25 48//25 50//25
f 49//25 50//25 51//25
f 51//26 50//26 52//26
f 51//26 52//26 53//26
f 53//27 52//27 54//27
f 53//27 54//27 55//27
f 55//28 54//28 56//28
f 55//28 56//28 57//28
f 57//29 56//29 58//29
f 57//29 58//29 59//29
f 59//30 58//30 60//30
f 59//30 60//30 61//30
f 61//31 60//31 62//31
f 61//31 62//31 63//31
f 63//32 62//32 64//32
f 63//32 64//32 65//32
f 65//33 64//33 66//33
f 65//33 66//33 67//33
f 67//34 66//34 68//34
f 67//34 68//34 69//34
f 69//35 68//35 70//35
f 69//35 70//35 71//35
f 71//36 70//36 72//36
f 71//36 72//36 73//36
f 73//37 72//37 74//37
f 73//37 74//37 75//37
f 75//38 74//38 76//38
f 75//38 76//38 77//38
f 77//39 76//39 78//39
f 77//39 78//39 79//39
f 79//40 78//40 80//40
f 79//40 80//40 81//40
f 81//41 80//41 82//41
f 81//41 82//41 83//41
f 83//42 82//42 84//42
f 83//42 84//42 85//42
f 85//43 84//43 86//43
f 85//43 86//43 87//43
f 87//44 86//44 88//44
f 87//44 88//44 89//44
f 89//45 88//45 90//45
f 89//45 90//45 91//45
f 91//46 90//46 92//46
f 91//46 92//46 93//46
f 93//47 92//47 94//47
f 93//47 94//47 95//47
f 95//48 94//48 96//48
f 95//48 96//48 97//48
f 97//49 96//49 98//49
f 97//49 98//49 99//49
f 99//50 98//50 100//50
f 99//50 100//50 101//50
f 101//51 100//51 102//51
f 101//51 102//51 103//51
f 103//52 102//52 1//52
f 103//52 1//52 104//52
f 104//1 1//1 3//1
f 2//53 1//53 105//53
f 8//53 6//53 105//53
f 105//53 6//53 5//53
f 105//53 5//53 2//53
f 14//53 12//53 105//53
f 105//53 12//53 10//53
f 105//53 10//53 8//53
f 20//53 18//53 105//53
f 105//53 18//53 16//53
f 105//53 16//53 14//53
f 26//53 24//53 105//53
f 105//53 24//53 22//53
f 105//53 22//53 20//53
f 32//53 30//53 105//53
f 105//53 30//53 28//53
f 105//53 28//53 26//53
f 38//53 36//53 105//53
f 105//53 36//53 34//53
f 105//53 34//53 32//53
f 44//53 42//53 105//53
f 105//53 42//53 40//53
f 105//53 40//53 38//53
f 50//53 48//53 105//53
f 105//53 48//53 46//53
f 105//53 46//53 44//53
f 56//53 54//53 105//53
f 105//53 54//53 52//53
f 105//53 52//53 50//53
f 62//53 60//53 105//53
f 105//53 60//53 58//53
f 105//53 58//53 56//53
f 68//53 66//53 105//53
f 105//53 66//53 64//53
f 105//53 64//53 62//53
f 74//53 72//53 105//53
f 105//53 72//53 70//53
f 105//53 70//53 68//53
f 80//53 78//53 105//53
f 105//53 78//53 76//53
f 105//53 76//53 74//53
f 86//53 84//53 105//53
f 105//53 84//53 82//53
f 105//53 82//53 80//53
f 92//53 90//53 105//53
f 105//53 90//53 88//53
f 105//53 88//53 86//53
f 98//53 96//53 105//53
f 105//53 96//53 94//53
f 105//53 94//53 92//53
f 1//53 102//53 105//53
f 105//53 102//53 100//53
f 105//53 100//53 98//53
f 3//54 4//54 106//54
f 101//54 103//54 106//54
f 106//54 103//54 104//54
f 106//54 104//54 3//54
f 95//54 97//54 106//54
f 106//54 97//54 99//54
f 106//54 99//54 101//54
f 89//54 91//54 106//54
f 106//54 91//54 93//54
f 106//54 93//54 95//54
f 83//54 85//54 106//54
f 106//54 85//54 87//54
f 106//54 87//54 89//54
f 77//54 79//54 106//54
f 106//54 79//54 81//54
f 106//54 81//54 83//54
f 71//54 73//54 106//54
f 106//54 73//54 75//54
f 106//54 75//54 77//54
f 65//54 67//54 106//54
f 106//54 67//54 69//54
f 106//54 69//54 71//54
f 59//54 61//54 106//54
f 106//54 61//54 63//54
f 106//54 63//54 65//54
f 53//54 55//54 106//54
f 106//54 55//54 57//54
f 106//54 57//54 59//54
f 47//54 49//54 106//54
f 106//54 49//54 51//54
f 106//54 51//54 53//54
f 41//54 43//54 106//54
f 106//54 43//54 45//54
f 106//54 45//54 47//54
f 35//54 37//54 106//54
f 106//54 37//54 39//54
f 106//54 39//54 41//54
f 29//54 31//54 106//54
f 106//54 31//54 33//54
f 106//54 33//54 35//54
f 23//54 25//54 106//54
f 106//54 25//54 27//54
f 106//54 27//54 29//54
f 17//54 19//54 106//54
f 106//54 19//54 21//54
f 106//54 21//54 23//54
f 11//54 13//54 106//54
f 106//54 13//54 15//54
f 106//54 15//54 17//54
f 4//54 7//54 106//54
f 106//54 7//54 9//54
f 106//54 9//54 11//54
